<svg xmlns="http://www.w3.org/2000/svg" viewBox="0 0 600 600">
  <defs>
    <filter id="blur">
      <feGaussianBlur stdDeviation="8"/>
    </filter>
  </defs>
  <!-- Blob 4 : arrière-plan large -->
  <path
    d="M420,120 C500,80 560,180 520,280 C480,380 400,420 340,380 C280,340 300,200 420,120Z"
    fill="#1A6FB5" opacity="0.10" filter="url(#blur)"
  />
  <!-- Blob 1 : Ocean, forme organique principale -->
  <path
    d="M180,160 C260,100 380,130 400,220 C420,310 360,400 280,420 C200,440 120,380 100,300 C80,220 100,220 180,160Z"
    fill="#1A6FB5" opacity="0.18" filter="url(#blur)"
  />
  <!-- Blob 2 : Miquelon, décalé droite-bas -->
  <path
    d="M300,200 C380,160 480,220 500,320 C520,420 440,500 360,490 C280,480 220,400 240,310 C260,220 220,240 300,200Z"
    fill="#0C9A78" opacity="0.20" filter="url(#blur)"
  />
  <!-- Blob 3 : Extérieur, petite forme en haut-droite -->
  <path
    d="M380,80 C440,50 520,100 510,170 C500,240 440,260 390,230 C340,200 320,110 380,80Z"
    fill="#6B4FA0" opacity="0.15" filter="url(#blur)"
  />
</svg>
